# xmcd CD database file
#
# Track frame offsets:
#	150
#	14259
#	32365
#	47595
#	61693
#	78963
#	91120
#	105425
#	125406
#	141372
#
# Disc length: 2129 seconds
#
# Revision: 0
# Processed by: cddbd v1.5PL3 Copyright (c) Steve Scherf et al.
# Submitted via: CDex 1.51
#
DISCID=6c084f0a
DTITLE=Dennis Marsh - Out Of Mexico
DYEAR=1900
DGENRE=Country
TTITLE0=Spanish Night Is Over
TTITLE1=Yo Te Amor Maria
TTITLE2=Did I Tell You That I Love You
TTITLE3=I Can't Help Falling In Love With You
TTITLE4=Portofino
TTITLE5=Gulf Of Mexico
TTITLE6=Bailando
TTITLE7=Before The Next Tear Drop Falls
TTITLE8=No More
TTITLE9=Blue Spanish Eyes
EXTD=
EXTT0=
EXTT1=
EXTT2=
EXTT3=
EXTT4=
EXTT5=
EXTT6=
EXTT7=
EXTT8=
EXTT9=
PLAYORDER=
